<svg width="128" height="128" viewBox="0 0 128 128" fill="none" xmlns="http://www.w3.org/2000/svg">
  <defs>
    <linearGradient id="panel" x1="18" y1="14" x2="110" y2="114" gradientUnits="userSpaceOnUse">
      <stop stop-color="#FFD764"/>
      <stop offset="0.55" stop-color="#FF9A6B"/>
      <stop offset="1" stop-color="#4DA3FF"/>
    </linearGradient>
    <linearGradient id="book" x1="30" y1="76" x2="98" y2="108" gradientUnits="userSpaceOnUse">
      <stop stop-color="#FFF9EF"/>
      <stop offset="1" stop-color="#F3FBFF"/>
    </linearGradient>
  </defs>
  <rect x="8" y="8" width="112" height="112" rx="30" fill="url(#panel)"/>
  <rect x="14" y="14" width="100" height="100" rx="25" fill="white" fill-opacity="0.12"/>
  <circle cx="88" cy="34" r="11" fill="#FFF4C8"/>
  <path d="M30 80C30 74.4772 34.4772 70 40 70H59C63.9706 70 68 74.0294 68 79V101C64.5933 96.7427 59.4722 94.2545 54 94H40C34.4772 94 30 89.5228 30 84V80Z" fill="url(#book)"/>
  <path d="M98 80C98 74.4772 93.5228 70 88 70H69C64.0294 70 60 74.0294 60 79V101C63.4067 96.7427 68.5278 94.2545 74 94H88C93.5228 94 98 89.5228 98 84V80Z" fill="url(#book)"/>
  <path d="M38 82H54" stroke="#4DA3FF" stroke-width="4" stroke-linecap="round"/>
  <path d="M74 82H90" stroke="#FF9A6B" stroke-width="4" stroke-linecap="round"/>
  <path d="M74 89H86" stroke="#FF9A6B" stroke-width="4" stroke-linecap="round"/>
  <text x="64" y="59" text-anchor="middle" fill="white" font-family="Arial, sans-serif" font-size="34" font-weight="700">JL</text>
</svg>
